<svg width="12" height="13" viewBox="0 0 12 13" fill="none" xmlns="http://www.w3.org/2000/svg">
<path d="M3.5 2.5C3.10218 2.5 2.72064 2.65804 2.43934 2.93934C2.15804 3.22064 2 3.60218 2 4V8C2 8.39782 2.15804 8.77936 2.43934 9.06066C2.72064 9.34196 3.10218 9.5 3.5 9.5H4V10.5C3.99998 10.5885 4.02343 10.6754 4.06797 10.7518C4.1125 10.8282 4.17651 10.8915 4.25348 10.9351C4.33044 10.9787 4.4176 11.0011 4.50606 11.0001C4.59452 10.999 4.68111 10.9745 4.757 10.929L7.138 9.5H8.5C8.89782 9.5 9.27936 9.34196 9.56066 9.06066C9.84196 8.77936 10 8.39782 10 8V4C10 3.60218 9.84196 3.22064 9.56066 2.93934C9.27936 2.65804 8.89782 2.5 8.5 2.5H3.5Z" fill="#9CA0D2"/>
</svg>
